<svg width="64" height="64" viewBox="0 0 64 64" fill="none" xmlns="http://www.w3.org/2000/svg">
<path d="M32 0C14.327 0 0 14.327 0 32C0 49.673 14.327 64 32 64C49.673 64 64 49.673 64 32C64 14.327 49.673 0 32 0ZM32 58C17.641 58 6 46.359 6 32C6 17.641 17.641 6 32 6C46.359 6 58 17.641 58 32C58 46.359 46.359 58 32 58ZM24 18V32V46V18Z" fill="white"/>
<path d="M27.708 32.7568H19.2705V38.4697H29.1729V42H14.876V20.6719H29.1436V24.2314H19.2705V29.3145H27.708V32.7568ZM49.0947 42H44.7002L36.1455 27.9668V42H31.751V20.6719H36.1455L44.7148 34.7344V20.6719H49.0947V42Z" fill="white"/>
</svg>
