<svg width="64" height="64" viewBox="0 0 64 64" fill="none" xmlns="http://www.w3.org/2000/svg">
<path d="M32 0C14.327 0 0 14.327 0 32C0 49.673 14.327 64 32 64C49.673 64 64 49.673 64 32C64 14.327 49.673 0 32 0ZM32 58C17.641 58 6 46.359 6 32C6 17.641 17.641 6 32 6C46.359 6 58 17.641 58 32C58 46.359 46.359 58 32 58ZM24 18V32V46V18Z" fill="white"/>
<path d="M46.2053 32L49.6703 28.535C49.8901 28.3152 50 28.0474 50 27.7337C50 27.4199 49.8901 27.1522 49.6703 26.9323L48.0677 25.3297C47.8478 25.1099 47.5801 25 47.2663 25C46.9526 25 46.6848 25.1099 46.465 25.3297L43 28.7947L39.535 25.3297C39.3152 25.1099 39.0474 25 38.7337 25C38.4199 25 38.1522 25.1099 37.9323 25.3297L36.3297 26.9323C36.1099 27.1522 36 27.4199 36 27.7337C36 28.0474 36.1099 28.3152 36.3297 28.535L39.7947 32L36.3297 35.465C36.1099 35.6848 36 35.9526 36 36.2663C36 36.5801 36.1099 36.8478 36.3297 37.0677L37.9323 38.6703C38.1522 38.8901 38.4199 39 38.7337 39C39.0474 39 39.3152 38.8901 39.535 38.6703L43 35.2053L46.465 38.6703C46.6848 38.8901 46.9516 39 47.2663 39C47.5811 39 47.8478 38.8901 48.0677 38.6703L49.6703 37.0677C49.8901 36.8478 50 36.5801 50 36.2663C50 35.9526 49.8901 35.6848 49.6703 35.465L46.2053 32Z" fill="white"/>
<path d="M32.3326 17C31.8816 17 31.4905 17.1564 31.1604 17.4691L22.4893 25.6843H15.6674C15.2153 25.6843 14.8253 25.8406 14.4952 26.1534C14.1651 26.4661 14 26.8367 14 27.2639V36.7361C14 37.1633 14.1651 37.5339 14.4952 37.8466C14.8253 38.1594 15.2164 38.3157 15.6674 38.3157H22.4893L31.1604 46.5309C31.4905 46.8436 31.8806 47 32.3326 47C32.7847 47 33.1747 46.8436 33.5048 46.5309C33.8349 46.2181 34 45.8486 34 45.4203V18.5797C34 18.1524 33.8349 17.7819 33.5059 17.4691C33.1768 17.1564 32.7857 17 32.3337 17H32.3326Z" fill="white"/>
</svg>
