<svg width="64" height="64" viewBox="0 0 64 64" fill="none" xmlns="http://www.w3.org/2000/svg">
<path d="M32 0C14.327 0 0 14.327 0 32C0 49.673 14.327 64 32 64C49.673 64 64 49.673 64 32C64 14.327 49.673 0 32 0ZM32 58C17.641 58 6 46.359 6 32C6 17.641 17.641 6 32 6C46.359 6 58 17.641 58 32C58 46.359 46.359 58 32 58ZM24 18V32V46V18Z" fill="white"/>
<path d="M22.3467 34.1924H18.8457V42H14.4512V20.6719H22.376C24.8955 20.6719 26.8389 21.2334 28.2061 22.3564C29.5732 23.4795 30.2568 25.0664 30.2568 27.1172C30.2568 28.5723 29.9395 29.7881 29.3047 30.7646C28.6797 31.7314 27.7275 32.5029 26.4482 33.0791L31.0625 41.7949V42H26.3457L22.3467 34.1924ZM18.8457 30.6328H22.3906C23.4941 30.6328 24.3486 30.3545 24.9541 29.7979C25.5596 29.2314 25.8623 28.4551 25.8623 27.4688C25.8623 26.4629 25.5742 25.6719 24.998 25.0957C24.4316 24.5195 23.5576 24.2314 22.376 24.2314H18.8457V30.6328ZM49.7539 20.6719V34.7197C49.7539 37.0537 49.0215 38.8994 47.5566 40.2568C46.1016 41.6143 44.1094 42.293 41.5801 42.293C39.0898 42.293 37.1123 41.6338 35.6475 40.3154C34.1826 38.9971 33.4355 37.1855 33.4062 34.8809V20.6719H37.8008V34.749C37.8008 36.1455 38.1328 37.166 38.7969 37.8105C39.4707 38.4453 40.3984 38.7627 41.5801 38.7627C44.0508 38.7627 45.3057 37.4639 45.3447 34.8662V20.6719H49.7539Z" fill="white"/>
</svg>
