<svg width="16" height="16" viewBox="0 0 16 16" fill="none" xmlns="http://www.w3.org/2000/svg">
<g clip-path="url(#clip0_30388:2)">
<path d="M15.2 6L14.1 5.8C14 5.6 14 5.4 13.9 5.2L14.5 4.3L15 3.6L12.4 1L11.7 1.5L10.8 2.1C10.6 2 10.4 2 10.2 1.9L10 0.8L9.8 0H6.2L6 0.8L5.8 1.9C5.6 2 5.4 2 5.2 2.1L4.3 1.5L3.6 1.1L1.1 3.6L1.6 4.3L2.2 5.2C2 5.4 2 5.6 1.9 5.8L0.8 6L0 6.2V9.8L0.8 10L1.9 10.2C2 10.4 2 10.6 2.1 10.8L1.5 11.7L1 12.4L3.6 15L4.3 14.5L5.2 13.9C5.4 14 5.6 14 5.8 14.1L6 15.2L6.2 16H9.8L10 15.2L10.2 14.1C10.4 14 10.6 14 10.8 13.9L11.7 14.5L12.4 15L15 12.4L14.5 11.7L13.9 10.8C14 10.6 14.1 10.4 14.1 10.2L15.2 10L16 9.8V6.2L15.2 6ZM15 9L13.3 9.3C13.2 9.8 13 10.3 12.7 10.8L13.6 12.2L12.2 13.6L10.8 12.7C10.3 13 9.8 13.2 9.3 13.3L9 15H7L6.7 13.3C6.2 13.2 5.7 13 5.2 12.7L3.8 13.6L2.4 12.2L3.3 10.8C3 10.3 2.8 9.8 2.7 9.3L1 9V7L2.7 6.7C2.8 6.2 3 5.7 3.3 5.2L2.3 3.8L3.7 2.4L5.1 3.3C5.6 3 6.1 2.8 6.6 2.7L7 1H9L9.3 2.7C9.8 2.8 10.3 3 10.8 3.3L12.2 2.4L13.6 3.8L12.7 5.2C13 5.7 13.2 6.2 13.3 6.7L15 7V9Z" fill="white"/>
<path d="M8 4.5C6.1 4.5 4.5 6.1 4.5 8C4.5 9.9 6.1 11.5 8 11.5C9.9 11.5 11.5 9.9 11.5 8C11.5 6.1 9.9 4.5 8 4.5ZM8 10.5C6.6 10.5 5.5 9.4 5.5 8C5.5 6.6 6.6 5.5 8 5.5C9.4 5.5 10.5 6.6 10.5 8C10.5 9.4 9.4 10.5 8 10.5Z" fill="white"/>
</g>
<defs>
<clipPath id="clip0_30388:2">
<rect width="16" height="16" fill="white"/>
</clipPath>
</defs>
</svg>
