<svg width="64" height="64" viewBox="0 0 64 64" fill="none" xmlns="http://www.w3.org/2000/svg">
<path d="M32 0C14.327 0 0 14.327 0 32C0 49.673 14.327 64 32 64C49.673 64 64 49.673 64 32C64 14.327 49.673 0 32 0ZM32 58C17.641 58 6 46.359 6 32C6 17.641 17.641 6 32 6C46.359 6 58 17.641 58 32C58 46.359 46.359 58 32 58ZM24 18V32V46V18Z" fill="white"/>
<path d="M32.3326 17C31.8816 17 31.4905 17.1564 31.1604 17.4691L22.4893 25.6843H15.6674C15.2153 25.6843 14.8253 25.8406 14.4952 26.1534C14.1651 26.4661 14 26.8367 14 27.2639V36.7361C14 37.1633 14.1651 37.5339 14.4952 37.8466C14.8253 38.1594 15.2164 38.3157 15.6674 38.3157H22.4893L31.1604 46.5309C31.4905 46.8436 31.8806 47 32.3326 47C32.7847 47 33.1747 46.8436 33.5048 46.5309C33.8349 46.2181 34 45.8486 34 45.4203V18.5797C34 18.1524 33.8349 17.7819 33.5059 17.4691C33.1768 17.1564 32.7857 17 32.3337 17H32.3326Z" fill="white"/>
<path d="M42.0399 35.515C42.7419 34.434 43.0929 33.266 43.0929 32.01C43.0929 30.754 42.7419 29.582 42.0399 28.492C41.3379 27.402 40.4099 26.634 39.2529 26.188C39.0879 26.106 38.8809 26.064 38.6339 26.064C38.2049 26.064 37.8329 26.217 37.5189 26.522C37.2049 26.829 37.0479 27.203 37.0479 27.649C37.0479 27.996 37.1469 28.289 37.3459 28.528C37.5449 28.767 37.7829 28.974 38.0639 29.147C38.3439 29.32 38.6249 29.51 38.9059 29.717C39.1869 29.924 39.4259 30.216 39.6239 30.596C39.8219 30.976 39.9209 31.447 39.9209 32.008C39.9209 32.569 39.8219 33.04 39.6239 33.42C39.4259 33.8 39.1869 34.093 38.9059 34.299C38.6249 34.505 38.3439 34.696 38.0639 34.869C37.7829 35.042 37.5439 35.249 37.3459 35.488C37.1479 35.727 37.0479 36.021 37.0479 36.367C37.0479 36.813 37.2059 37.188 37.5189 37.494C37.8329 37.798 38.2039 37.953 38.6339 37.953C38.8809 37.953 39.0879 37.912 39.2529 37.829C40.4089 37.366 41.3379 36.594 42.0399 35.512V35.515Z" fill="white"/>
<path d="M47.8744 39.1208C49.2915 36.9463 50 34.5714 50 31.999C50 29.4276 49.2915 27.0547 47.8744 24.8771C46.4574 22.7026 44.5822 21.1173 42.2497 20.1262C42.0337 20.0427 41.8167 20 41.5997 20C41.1667 20 40.7913 20.1598 40.4744 20.4793C40.1574 20.7988 40 21.1763 40 21.6138C40 22.2691 40.325 22.7647 40.975 23.1015C41.9075 23.5889 42.5414 23.9583 42.8744 24.2106C44.1078 25.1183 45.0707 26.2559 45.762 27.6255C46.4534 28.9952 46.7996 30.4523 46.7996 32C46.7996 33.5457 46.4534 35.0038 45.762 36.3745C45.0707 37.7441 44.1078 38.8817 42.8744 39.7894C42.5414 40.0417 41.9075 40.4111 40.975 40.8985C40.325 41.2353 40 41.7298 40 42.3862C40 42.8227 40.1585 43.2012 40.4744 43.5207C40.7903 43.8402 41.1738 44 41.6239 44C41.8238 44 42.0327 43.9573 42.2487 43.8738C44.5811 42.8817 46.4574 41.2984 47.8734 39.1219L47.8744 39.1208Z" fill="white"/>
</svg>
